<?xml version="1.0" encoding="UTF-8" standalone="no"?>
<!DOCTYPE svg PUBLIC "-//W3C//DTD SVG 1.1//EN" "http://www.w3.org/Graphics/SVG/1.1/DTD/svg11.dtd">
<svg width="100%" height="100%" viewBox="0 0 250 250" version="1.1" xmlns="http://www.w3.org/2000/svg" xmlns:xlink="http://www.w3.org/1999/xlink" xml:space="preserve" xmlns:serif="http://www.serif.com/" style="fill-rule:evenodd;clip-rule:evenodd;stroke-linejoin:round;stroke-miterlimit:2;">
    <g>
        <path d="M206.79,81.505C203.477,81.505 200.79,84.192 200.79,87.505L200.79,237.424L12,237.424L12,48.635L158.792,48.635C162.106,48.635 164.792,45.948 164.792,42.635C164.792,39.322 162.106,36.635 158.792,36.635L6,36.635C2.687,36.635 0,39.322 0,42.635L0,243.424C0,246.737 2.687,249.424 6,249.424L206.79,249.424C210.103,249.424 212.79,246.737 212.79,243.424L212.79,87.505C212.79,84.192 210.103,81.505 206.79,81.505Z" style="fill:white;fill-rule:nonzero;"/>
        <path d="M247.667,1.758C245.324,-0.585 241.525,-0.587 239.182,1.758L80.416,160.523L41.023,121.13C38.68,118.786 34.88,118.786 32.538,121.13C30.195,123.473 30.195,127.272 32.538,129.614L76.174,173.25C77.345,174.422 78.881,175.008 80.417,175.008C81.953,175.008 83.488,174.422 84.66,173.25L247.667,10.243C250.011,7.9 250.011,4.101 247.667,1.758Z" style="fill:white;fill-rule:nonzero;"/>
    </g>
</svg>
